<svg width="22" height="23" viewBox="0 0 22 23" fill="none" xmlns="http://www.w3.org/2000/svg">
<path d="M18.0748 15.47C18.0748 15.48 18.0748 15.49 18.0649 15.49H11.1374V18.29H15.7821C14.3887 19.37 12.7976 19.75 10.9002 19.75C7.56 19.75 4.68423 17.71 3.40941 14.81H16.6419V14.8H21.3162C21.5929 13.91 21.7609 12.97 21.8104 12H19.0729V12.01L2.73741 12.02V12H0C0.256941 17.85 5.04 22.5 10.9002 22.5C15.6438 22.5 19.5374 19.73 21.0494 15.47H18.0748ZM18.4108 7.72L3.39953 7.73C4.65459 4.81 7.54023 2.76 10.9002 2.76V0C5.04 0 0.266824 4.66 0 10.5H21.8005C21.7708 9.53 21.6028 8.61 21.3261 7.72H18.4108Z" fill="#DFBB24"/>
</svg>
